# xmcd
#
# Track frame offsets:
#	150
#	21307
#	39848
#	57756
#	73220
#	97904
#
# Disc length: 1459 seconds
#
# Revision: 1
# Processed by: cddbd v1.5.2PL0 Copyright (c) Steve Scherf et al.
# Submitted via: audiograbber 1.83.01
#
DISCID=4605b106
DTITLE=Miss Tess - The Waltz Set
DYEAR=1900
DGENRE=Cabaret
TTITLE0=The Bicycle Song
TTITLE1=Song for a Southern Boy
TTITLE2=Dreams Aren't Meant to Die
TTITLE3=Wonder Wheel
TTITLE4=Save Me Saint Peter
TTITLE5=End of the World
EXTD=
EXTT0=
EXTT1=
EXTT2=
EXTT3=
EXTT4=
EXTT5=
PLAYORDER=
